<?xml version="1.0" encoding="UTF-8" standalone="no"?>
<svg width="512" height="512" viewBox="0 0 512 512" version="1.1" id="svg8" inkscape:version="1.2.1 (9c6d41e410, 2022-07-14)" sodipodi:docname="icon.svg" inkscape:export-filename="icon.png" inkscape:export-xdpi="110.45" inkscape:export-ydpi="110.45" xml:space="preserve" xmlns:inkscape="http://www.inkscape.org/namespaces/inkscape" xmlns:sodipodi="http://sodipodi.sourceforge.net/DTD/sodipodi-0.dtd" xmlns="http://www.w3.org/2000/svg" xmlns:svg="http://www.w3.org/2000/svg" xmlns:rdf="http://www.w3.org/1999/02/22-rdf-syntax-ns#" xmlns:cc="http://creativecommons.org/ns#" xmlns:dc="http://purl.org/dc/elements/1.1/"><defs id="defs0" /><sodipodi:namedview id="base" inkscape:document-units="px" inkscape:current-layer="g253" showgrid="false" units="px" inkscape:document-rotation="0" pagecolor="#151515" inkscape:pageopacity="0" bordercolor="white" borderopacity="1" borderlayer="false" inkscape:pagecheckerboard="true" inkscape:showpageshadow="0" inkscape:deskcolor="#151515" /><metadata id="metadata0"><rdf:RDF><cc:Work rdf:about=""><dc:format>image/svg+xml</dc:format><dc:type rdf:resource="http://purl.org/dc/dcmitype/StillImage" /></cc:Work></rdf:RDF></metadata><g inkscape:label="Layer 1" inkscape:groupmode="layer" id="layer0"><g id="g253" transform="matrix(0.35603,0,0,0.35603,502.961,164.051)"><path fill-rule="nonzero" fill="#e04854" fill-opacity="1" d="m -102.906,258.213 c 0,35.707 -3.2,71.267 -9.52,105.947 l -87.133,7.333 c -7.2,0.6 -13.213,5.68 -15.053,12.667 -5.84,22.266 -13.267,44.106 -22.093,65.173 l -82.654,-82.613 c 10.2,-35.067 15.4,-71.48 15.4,-108.507 0,-214.8631 -174.866,-389.681 -389.732,-389.733 -214.866,0.05 -389.729,174.8699 -389.769,389.733 0,214.866 174.903,389.733 389.769,389.773 36.813,0 73.227,-5.24 108.453,-15.387 l 82.667,82.613 c -21.08,8.827 -42.907,16.24 -65.214,22.08 -7,1.84 -12.066,7.893 -12.666,15.067 l -7.334,87.213 c -34.759,6.307 -70.293,9.467 -105.866,9.467 -35.773,0 -71.346,-3.2 -105.986,-9.467 l -7.334,-87.213 c -0.586,-7.174 -5.666,-13.227 -12.666,-15.067 -43.28,-11.347 -84.907,-28.573 -123.76,-51.306 -6.227,-3.627 -14.08,-2.934 -19.627,1.706 l -66.786,56.427 c -58.81,-40.68 -109.09,-90.973 -149.75,-149.787 l 56.43,-66.786 c 4.65,-5.493 5.33,-13.347 1.67,-19.613 -22.7,-38.854 -39.96,-80.48 -51.31,-123.773 -1.84,-6.987 -7.89,-12.067 -15.09,-12.667 L -1275,364.2 c -6.32,-34.76 -9.46,-70.333 -9.46,-105.987 0,-35.734 3.14,-71.306 9.46,-105.895 l 87.18,-7.334 c 7.2,-0.598 13.21,-5.718 15.05,-12.666 11.35,-43.3696 28.61,-85.0001 51.31,-123.72938 3.66,-6.22799 2.98,-14.11863 -1.67,-19.61462 l -56.43,-66.8372 c 40.62,-58.7758 90.9,-109.0948 149.75,-149.8288 l 66.826,56.464 c 5.547,4.698 13.4,5.333 19.627,1.708 38.76,-22.676 80.386,-39.958 123.72,-51.343 7,-1.829 12.08,-7.854 12.666,-15.057 l 7.334,-87.131 c 34.6,-6.322 70.039,-9.469 105.559,-9.469 35.747,0.08 71.4,3.147 106.293,9.469 l 7.334,87.131 c 0.6,7.203 5.706,13.271 12.666,15.057 43.334,11.343 84.96,28.609 123.76,51.301 6.227,3.667 14.12,2.99 19.627,-1.702 l 66.786,-56.428 c 58.813,40.693 109.133,91.01 149.826,149.8288 l -56.426,66.7959 c -4.693,5.49462 -5.373,13.38527 -1.707,19.61459 22.694,38.81321 39.96,80.43711 51.307,123.77071 1.8,6.948 7.853,12.068 15.053,12.666 l 87.187,7.334 c 6.266,34.761 9.466,70.322 9.466,105.895" id="path33" style="stroke-width:1.33333" /><path fill-rule="nonzero" fill="#3a8baa" fill-opacity="1" d="m -146.452,715.412 c 0,24.067 -9.347,46.667 -26.36,63.68 -35.147,35.147 -92.253,35.147 -127.4,0 L -581.225,498.079 c -3.28,-3.24 -7.626,-4.986 -12.066,-4.986 -2.134,0 -4.267,0.373 -6.32,1.186 -29.973,11.987 -61.667,18.08 -94.08,18.08 -140.106,0 -254.146,-113.999 -254.146,-254.146 0,-23.588 3.16,-46.692 9.467,-68.999 l 193.119,193.066 c 6.653,6.653 17.44,6.653 24.093,0 l 151.533,-151.493 c 6.654,-6.694 6.654,-17.48 0,-24.136 L -762.744,13.5739 c 22.306,-6.30794 45.426,-9.46927 69.053,-9.50527 140.146,0.04 254.146,114.05137 254.146,254.14437 0,32.467 -6.093,64.107 -18.08,94.093 -2.52,6.347 -1.067,13.56 3.8,18.374 l 281.013,281.066 c 17.013,16.973 26.36,39.613 26.36,63.666" id="path35" style="stroke-width:1.33333" /><path fill-rule="nonzero" fill="#29333f" fill-opacity="1" d="m -112.399,364.16 -87.133,7.32 c -7.2,0.613 -13.24,5.68 -15.08,12.666 -5.84,22.28 -13.253,44.12 -22.067,65.2 l -82.64,-82.64 c 10.174,-35.04 15.387,-71.466 15.387,-108.479 0,-214.8665 -174.879,-389.705 -389.759,-389.747 -214.866,0.04 -389.709,174.8805 -389.729,389.76 0,214.866 174.863,389.706 389.742,389.732 36.827,0 73.254,-5.213 108.467,-15.386 l 82.64,82.64 c -21.08,8.826 -42.907,16.226 -65.187,22.079 -6.987,1.84 -12.067,7.867 -12.667,15.067 l -7.36,87.213 c -34.746,6.28 -70.293,9.467 -105.853,9.467 -35.773,0 -71.359,-3.213 -105.973,-9.493 l -7.32,-87.174 c -0.613,-7.213 -5.693,-13.253 -12.68,-15.08 -43.293,-11.333 -84.933,-28.599 -123.759,-51.293 -6.227,-3.64 -14.094,-2.973 -19.614,1.694 l -66.796,56.426 c -58.82,-40.693 -109.11,-90.986 -149.76,-149.773 l 56.42,-66.8 c 4.66,-5.506 5.34,-13.373 1.68,-19.613 -22.72,-38.867 -39.98,-80.506 -51.32,-123.786 -1.82,-6.987 -7.86,-12.067 -15.08,-12.68 l -87.14,-7.294 c -6.31,-34.733 -9.5,-70.319 -9.5,-105.959 0,-35.748 3.19,-71.305 9.48,-105.893 l 87.18,-7.35 c 7.2,-0.609 13.24,-5.692 15.06,-12.692 11.35,-43.3329 28.62,-84.9581 51.32,-123.70338 3.66,-6.23865 2.99,-14.1093 -1.68,-19.62932 l -56.44,-66.7971 c 40.63,-58.8012 90.94,-109.1202 149.78,-149.8272 l 66.823,56.453 c 5.52,4.666 13.387,5.349 19.627,1.692 38.773,-22.676 80.399,-39.948 123.733,-51.317 6.986,-1.844 12.053,-7.88 12.666,-15.083 l 7.32,-87.131 c 34.574,-6.297 70.013,-9.478 105.547,-9.478 35.76,0.12 71.4,3.156 106.279,9.462 l 7.36,87.162 c 0.6,7.198 5.68,13.24 12.667,15.068 43.307,11.333 84.933,28.583 123.76,51.291 6.24,3.651 14.093,2.974 19.613,-1.693 l 66.8,-56.426 c 58.826,40.693 109.133,91.015 149.826,149.8272 l -56.44,66.7598 c -4.68,5.51599 -5.36,13.3853 -1.706,19.62529 22.706,38.82791 39.96,80.45311 51.293,123.74471 1.827,7 7.866,12.083 15.066,12.692 l 87.16,7.35 c 6.307,34.734 9.494,70.291 9.494,105.893 0,35.693 -3.2,71.266 -9.507,105.933 z M -81.3592,133 c -1.52,-7.412 -7.7333,-12.948 -15.2799,-13.588 l -88.1729,-7.428 c -10.96,-38.2489 -26.28,-75.1968 -45.64,-110.1287 l 57.093,-67.5372 c 4.893,-5.7706 5.373,-14.0879 1.2,-20.4212 -46.786,-70.7759 -106.386,-130.3739 -177.159,-177.1609 -6.32,-4.172 -14.64,-3.683 -20.414,1.197 l -67.56,57.084 c -34.946,-19.376 -71.893,-34.698 -110.133,-45.656 l -7.44,-88.172 c -0.64,-7.547 -6.173,-13.775 -13.6,-15.281 -40.933,-8.333 -83.053,-12.557 -125.173,-12.557 -42.306,0.09 -84.426,4.213 -125.319,12.583 -7.414,1.521 -12.934,7.75 -13.574,15.297 l -7.413,88.13 c -38.266,11 -75.2,26.323 -110.093,45.681 l -67.583,-57.109 c -5.79,-4.88 -14.11,-5.369 -20.42,-1.197 -70.82,46.812 -130.41,106.41 -177.12,177.1715 -4.16,6.3227 -3.68,14.624 1.22,20.4106 l 57.06,67.54654 c -19.37,34.88126 -34.7,71.82916 -45.68,110.11936 l -88.17,7.428 c -7.53,0.64 -13.76,6.162 -15.28,13.572 -8.35,40.751 -12.59,82.88 -12.59,125.243 0,42.213 4.24,84.373 12.59,125.293 1.52,7.426 7.75,12.96 15.29,13.586 l 88.16,7.387 c 10.98,38.24 26.3,75.186 45.68,110.16 l -57.06,67.56 c -4.9,5.773 -5.38,14.093 -1.2,20.399 46.73,70.747 106.32,130.333 177.09,177.12 6.32,4.173 14.64,3.68 20.43,-1.2 l 67.556,-57.08 c 34.934,19.373 71.88,34.693 110.12,45.653 l 7.413,88.2 c 0.64,7.547 6.174,13.773 13.587,15.28 40.76,8.32 82.906,12.547 125.293,12.587 42.133,0 84.253,-4.227 125.186,-12.56 7.427,-1.507 12.96,-7.734 13.6,-15.28 l 7.44,-88.227 c 28.187,-8.106 55.654,-18.52 81.8,-31.04 0.333,-0.16 0.6,-0.386 0.92,-0.56 0.52,-0.293 1.04,-0.586 1.533,-0.946 0.507,-0.36 0.974,-0.76 1.427,-1.16 0.267,-0.227 0.56,-0.414 0.813,-0.667 0.134,-0.133 0.187,-0.253 0.294,-0.36 0.44,-0.467 0.826,-0.96 1.2,-1.467 0.306,-0.413 0.626,-0.813 0.893,-1.24 0.293,-0.48 0.533,-0.973 0.773,-1.466 0.254,-0.507 0.507,-1 0.707,-1.52 0.187,-0.494 0.307,-1 0.453,-1.507 0.147,-0.547 0.307,-1.08 0.4,-1.64 0.134,-0.533 0.134,-1.08 0.16,-1.626 0,-0.534 0.134,-1.067 0.134,-1.614 0,-0.546 -0.134,-1.093 -0.16,-1.64 -0.134,-0.56 -0.134,-1.106 -0.24,-1.653 -0.134,-0.493 -0.28,-0.973 -0.44,-1.467 -0.187,-0.6 -0.374,-1.2 -0.64,-1.773 0,-0.147 -0.134,-0.307 -0.16,-0.453 -0.16,-0.334 -0.374,-0.6 -0.547,-0.907 -0.307,-0.533 -0.6,-1.053 -0.96,-1.56 -0.347,-0.493 -0.747,-0.947 -1.147,-1.413 -0.24,-0.254 -0.413,-0.56 -0.666,-0.814 L -568.225,601.279 c -0.2,-0.213 -0.453,-0.36 -0.666,-0.547 -0.48,-0.44 -0.96,-0.84 -1.48,-1.213 -0.414,-0.293 -0.84,-0.573 -1.28,-0.827 -0.507,-0.293 -1.014,-0.573 -1.547,-0.813 -0.48,-0.227 -0.96,-0.413 -1.453,-0.587 -0.547,-0.186 -1.094,-0.36 -1.667,-0.493 -0.493,-0.133 -0.987,-0.213 -1.48,-0.28 -0.587,-0.133 -1.173,-0.147 -1.773,-0.173 -0.52,0 -1.027,0 -1.547,0 -0.56,0 -1.12,0.133 -1.693,0.16 -0.587,0.133 -1.16,0.226 -1.734,0.373 -0.306,0.133 -0.613,0.133 -0.92,0.187 -34.946,11.133 -71.346,16.773 -108.159,16.773 -196.066,0 -355.596,-159.559 -355.626,-355.612 0,-196.0678 159.56,-355.5994 355.612,-355.6408 196.067,0.04 355.599,159.573 355.639,355.6268 0,37.027 -5.64,73.4 -16.773,108.147 -0.133,0.306 -0.133,0.613 -0.186,0.906 -0.16,0.6 -0.294,1.187 -0.387,1.787 -0.133,0.547 -0.133,1.08 -0.147,1.613 0,0.547 0,1.094 0,1.64 0,0.56 0.134,1.12 0.16,1.667 0.134,0.533 0.174,1.067 0.294,1.6 0.133,0.533 0.293,1.04 0.466,1.547 0.174,0.533 0.387,1.053 0.627,1.56 0.227,0.506 0.48,0.973 0.76,1.453 0.267,0.467 0.547,0.92 0.867,1.36 0.36,0.507 0.76,0.96 1.16,1.427 0.213,0.226 0.36,0.48 0.586,0.706 l 107.333,107.333 c 0.254,0.254 0.547,0.427 0.814,0.667 0.453,0.4 0.92,0.8 1.426,1.16 0.494,0.36 1.014,0.653 1.534,0.933 0.32,0.187 0.586,0.414 0.92,0.574 0.146,0 0.306,0.133 0.466,0.16 0.574,0.253 1.16,0.453 1.76,0.64 0.494,0.146 0.974,0.32 1.454,0.426 0.573,0.134 1.133,0.187 1.706,0.254 0.534,0 1.054,0.133 1.587,0.146 0.133,0 0.267,0 0.4,0 0.427,0 0.853,-0.133 1.28,-0.133 0.533,0 1.053,-0.133 1.56,-0.147 0.587,-0.133 1.147,-0.266 1.707,-0.426 0.493,-0.134 0.973,-0.254 1.44,-0.427 0.546,-0.2 1.053,-0.467 1.573,-0.733 0.48,-0.24 0.96,-0.454 1.413,-0.734 0.44,-0.28 0.867,-0.613 1.28,-0.933 0.494,-0.373 0.974,-0.733 1.427,-1.16 0.133,-0.133 0.267,-0.2 0.387,-0.32 0.253,-0.253 0.44,-0.56 0.68,-0.827 0.386,-0.453 0.786,-0.893 1.133,-1.4 0.36,-0.506 0.653,-1.026 0.96,-1.56 0.173,-0.306 0.387,-0.573 0.547,-0.906 12.519,-26.134 22.946,-53.6 31.039,-81.787 l 88.1335,-7.413 c 7.5467,-0.64 13.76,-6.16 15.2933,-13.573 8.3734,-40.84 12.6133,-82.987 12.6133,-125.28 0,-42.175 -4.2399,-84.305 -12.5866,-125.226" id="path37" style="stroke-width:1.33333" /><path fill-rule="nonzero" fill="#29333f" fill-opacity="1" d="m -172.799,779.119 c -35.12,35.106 -92.266,35.106 -127.386,0 l -281.026,-281.04 c -3.267,-3.253 -7.627,-5 -12.067,-5 -2.133,0 -4.28,0.4 -6.333,1.227 -29.973,11.96 -61.627,18.053 -94.067,18.08 -140.119,0 -254.119,-114.013 -254.159,-254.159 0,-23.587 3.187,-46.706 9.48,-69.029 l 193.106,193.095 c 6.653,6.667 17.453,6.667 24.12,0 l 151.506,-151.506 c 6.667,-6.667 6.667,-17.47 0,-24.136 L -762.704,13.5633 c 22.28,-6.28134 45.4,-9.45867 69.013,-9.484 140.146,0.0267 254.159,114.0407 254.159,254.1337 0,32.454 -6.106,64.12 -18.08,94.093 -2.533,6.334 -1.04,13.56 3.787,18.387 l 281.026,281.039 c 17.013,17.014 26.387,39.627 26.387,63.68 0,24.067 -9.374,46.693 -26.387,63.707 z M -421.932,354.346 c 10.934,-30.84 16.494,-63.106 16.52,-96.106 0,0 0,0 0,0 0,-158.9196 -129.319,-288.226 -288.279,-288.2673 -37,0.04 -72.933,6.9213 -106.786,20.4533 -5.334,2.13466 -9.227,6.78531 -10.387,12.41597 -1.147,5.60932 0.6,11.43733 4.653,15.48933 l 200.4,200.4007 -127.387,127.388 -200.399,-200.398 c -4.053,-4.068 -9.88,-5.828 -15.493,-4.656 -5.614,1.161 -10.28,5.052 -12.4,10.385 -13.587,33.937 -20.467,69.88 -20.467,106.802 0,158.947 129.36,288.266 288.293,288.266 32.986,0 65.266,-5.586 96.093,-16.52 l 273.266,273.253 c 24.213,24.213 56.013,36.32 87.813,36.32 31.8,0 63.6,-12.107 87.813,-36.32 23.467,-23.453 36.387,-54.64 36.387,-87.826 0,-33.16 -12.92,-64.347 -36.387,-87.814 L -421.932,354.36" id="path39" style="stroke-width:1.33333" /></g></g></svg>
